<svg t="1703414006295" class="icon" viewBox="0 0 1024 1024" version="1.1" xmlns="http://www.w3.org/2000/svg" p-id="1566" width="64" height="64"><path d="M507.469576 183.699394c-188.509091 0-341.333333 152.824242-341.333334 341.333333s152.824242 341.333333 341.333334 341.333334 341.333333-152.824242 341.333333-341.333334-152.824242-341.333333-341.333333-341.333333z m-403.39394 341.333333c0-222.797576 180.596364-403.393939 403.39394-403.393939s403.393939 180.596364 403.393939 403.393939-180.596364 403.393939-403.393939 403.39394-403.393939-180.596364-403.39394-403.39394z" fill="#303133" p-id="1567"></path><path d="M430.762667 373.542788a31.030303 31.030303 0 0 1 31.868121 1.551515l186.181818 124.121212a31.030303 31.030303 0 0 1 0 51.634424l-186.181818 124.121213a31.030303 31.030303 0 0 1-48.252121-25.817213v-248.242424a31.030303 31.030303 0 0 1 16.384-27.368727z m45.676606 85.333333v132.313212l99.203879-66.156606-99.203879-66.125575z" fill="#303133" p-id="1568"></path></svg>
