<svg t="1703414232963" class="icon" viewBox="0 0 1024 1024" version="1.1" xmlns="http://www.w3.org/2000/svg" p-id="5224" width="64" height="64"><path d="M398.09 256h356.66l-69.41-69.41c-12.5-12.5-12.5-32.75 0-45.25s32.75-12.5 45.25 0l124.03 124.03c12.5 12.5 12.5 32.75 0 45.25L730.59 434.66c-6.25 6.25-14.44 9.38-22.62 9.38s-16.38-3.12-22.62-9.38c-12.5-12.5-12.5-32.75 0-45.25l69.4-69.41H398.09c-130.66 0-236.97 100.48-236.97 224 0 123.5 106.31 224 236.97 224h327.42c17.67 0 32 14.31 32 32s-14.33 32-32 32H398.09C232.12 832 97.12 702.81 97.12 544c0-158.8 135-288 300.97-288z" fill="#2c2c2c" p-id="5225"></path></svg>
