<svg t="1703414046587" class="icon" viewBox="0 0 1024 1024" version="1.1" xmlns="http://www.w3.org/2000/svg" p-id="1725" width="64" height="64"><path d="M507.469576 183.699394c-188.509091 0-341.333333 152.824242-341.333334 341.333333s152.824242 341.333333 341.333334 341.333334 341.333333-152.824242 341.333333-341.333334-152.824242-341.333333-341.333333-341.333333z m-403.39394 341.333333c0-222.797576 180.596364-403.393939 403.39394-403.393939s403.393939 180.596364 403.393939 403.393939-180.596364 403.393939-403.393939 403.39394-403.393939-180.596364-403.39394-403.39394z" fill="#303133" p-id="1726"></path><path d="M383.348364 431.941818a31.030303 31.030303 0 0 1 31.030303-31.030303h186.181818a31.030303 31.030303 0 0 1 31.030303 31.030303v186.181818a31.030303 31.030303 0 0 1-31.030303 31.030303h-186.181818a31.030303 31.030303 0 0 1-31.030303-31.030303v-186.181818z m62.060606 31.030303v124.121212h124.121212v-124.121212h-124.121212z" fill="#303133" p-id="1727"></path></svg>
